<svg id="articles" xmlns="http://www.w3.org/2000/svg" width="31.012" height="31.012" viewBox="0 0 31.012 31.012">
  <rect id="Rectangle" width="31.012" height="31.012" fill="#fff" opacity="0"/>
  <path id="Combined_Shape" data-name="Combined Shape" d="M7.172,26.836,3.877,28.719V22.29H5.039v4.424L7.172,25.5,9.3,26.715V22.29h1.163v6.429Zm17.25-.864H11.94a.581.581,0,1,1,0-1.162H23.259V21.321H2.966a1.743,1.743,0,0,0-.124,3.485.127.127,0,0,1,.124.128v.458a.243.243,0,0,1-.246.245.237.237,0,0,1-.169-.07L0,23.065V4.458A4.457,4.457,0,0,1,4.287,0l.171,0H24.422V25.972h0ZM1.167,4.3l0,.16v16.3a2.989,2.989,0,0,1,1.65-.594l.152,0H18.413V1.163H4.458A3.3,3.3,0,0,0,1.167,4.3Zm22.092,15.86V1.163H19.577V20.158Z" transform="translate(3.101 0.775)" fill="#fff"/>
</svg>
