<svg xmlns="http://www.w3.org/2000/svg" width="21.119" height="24.835" viewBox="0 0 21.119 24.835">
  <path id="Combined_Shape" data-name="Combined Shape" d="M6.2,23.207,3.353,24.835v-5.56H4.358V23.1L6.2,22.049,8.045,23.1V19.275H9.051v5.56Zm14.917-.747H10.325a.5.5,0,1,1,0-1.005h9.789V18.438H2.565a1.508,1.508,0,0,0-.107,3.013.11.11,0,0,1,.107.11v.4a.21.21,0,0,1-.213.212.205.205,0,0,1-.146-.061L0,19.946V3.855A3.855,3.855,0,0,1,3.707,0l.148,0H21.119V22.46h0ZM1.009,3.717l0,.138V17.948a2.585,2.585,0,0,1,1.427-.513l.132,0H15.923V1.006H3.855A2.849,2.849,0,0,0,1.009,3.717Zm19.1,13.715V1.006H16.929V17.432Z" fill="#3c3c3b"/>
</svg>
