<svg id="emergency" xmlns="http://www.w3.org/2000/svg" width="20.777" height="20.777" viewBox="0 0 20.777 20.777">
  <rect id="Rectangle" width="20.777" height="20.777" fill="#3c3c3b" opacity="0"/>
  <path id="Shape" d="M15.176,19.739a4.466,4.466,0,0,1-3.043-1.187l-.127-.122L9.869,16.293,7.734,18.429a4.453,4.453,0,0,1-3.171,1.31,4.543,4.543,0,0,1-3.1-1.215L1.339,18.4A4.541,4.541,0,0,1,0,15.279a4.459,4.459,0,0,1,1.186-3.147l.122-.127L3.445,9.869,1.31,7.734A4.457,4.457,0,0,1,0,4.625,4.537,4.537,0,0,1,1.216,1.468l.123-.129A4.531,4.531,0,0,1,4.563,0,4.466,4.466,0,0,1,7.606,1.188l.128.122L9.869,3.445,12.005,1.31A4.452,4.452,0,0,1,15.175,0a4.572,4.572,0,0,1,4.562,4.459,4.459,4.459,0,0,1-1.186,3.147l-.122.128L16.293,9.869l2.135,2.136a4.457,4.457,0,0,1,1.309,3.109,4.537,4.537,0,0,1-1.215,3.157L18.4,18.4A4.531,4.531,0,0,1,15.176,19.739Zm.5-9.248h0l-5.181,5.181,2.136,2.135a3.58,3.58,0,0,0,2.549,1.053,3.667,3.667,0,0,0,2.477-.962l.125-.119a3.638,3.638,0,0,0,.147-5.028l-.118-.123-2.135-2.136Zm-11.6,0h0L1.932,12.627A3.579,3.579,0,0,0,.879,15.2a3.693,3.693,0,0,0,3.684,3.664,3.593,3.593,0,0,0,2.426-.935l.123-.118,2.135-2.135-5.18-5.18Zm5.8-5.8h0l-5.18,5.18,5.18,5.181L15.05,9.869,9.869,4.689ZM15.175.879h0a3.593,3.593,0,0,0-2.425.935l-.123.118L10.491,4.067l5.18,5.18,2.135-2.135a3.633,3.633,0,0,0,.09-5.026l-.119-.125a3.658,3.658,0,0,0-2.6-1.082ZM4.563.879A3.674,3.674,0,0,0,1.814,6.989l.118.123L4.066,9.248,9.248,4.066,7.112,1.932A3.58,3.58,0,0,0,4.563.879ZM9.924,13.525a.512.512,0,1,1,.369-.157A.511.511,0,0,1,9.924,13.525Zm-1.6-1.544a.512.512,0,1,1,.369-.156A.51.51,0,0,1,8.325,11.981Zm3.119-.03a.513.513,0,1,1,.369-.157A.51.51,0,0,1,11.444,11.951ZM6.727,10.437A.513.513,0,1,1,7.1,10.28.51.51,0,0,1,6.727,10.437Zm3.119-.03a.513.513,0,1,1,.369-.157A.511.511,0,0,1,9.846,10.407Zm3.166-.079a.513.513,0,1,1,.369-.157A.509.509,0,0,1,13.012,10.327ZM8.247,8.863a.512.512,0,1,1,.369-.156A.51.51,0,0,1,8.247,8.863Zm3.166-.079a.513.513,0,1,1,.369-.157A.51.51,0,0,1,11.413,8.784ZM9.814,7.24a.512.512,0,1,1,.369-.156A.51.51,0,0,1,9.814,7.24Z" transform="translate(0.519 0.519)" fill="#3c3c3b"/>
</svg>
