<svg xmlns="http://www.w3.org/2000/svg" width="228.593" height="204.803" viewBox="0 0 228.593 204.803">
  <g id="Group_291" data-name="Group 291" transform="translate(-73 -165)">
    <path id="Path_33" data-name="Path 33" d="M569.074,270l112.317,78.05V473.5H453.8V348.05Z" transform="translate(-379.798 -105)" fill="#fff"/>
    <g id="Group_288" data-name="Group 288" transform="translate(73 165)">
      <path id="Path_25" data-name="Path 25" d="M544.744,272.483a.4.4,0,0,1-.229-.072L433.821,195.32a2.008,2.008,0,0,0-2.293,0L321.63,272.41a.4.4,0,0,1-.46-.655l109.9-77.087a2.811,2.811,0,0,1,3.21-.005l110.7,77.091a.4.4,0,0,1-.229.729Z" transform="translate(-318.598 -194.163)" fill="#3f3d56"/>
      <path id="Path_26" data-name="Path 26" d="M23.264,86.043,128.137,8.319,233.805,91.573,133.54,151.011,79.1,138.6Z" transform="translate(-13.952 -4.99)" fill="#ededed"/>
      <path id="Path_27" data-name="Path 27" d="M408,643.45h-51.81a2.421,2.421,0,0,1,0-4.841H408a2.421,2.421,0,0,1,0,4.841Z" transform="translate(-338.251 -460.716)" fill="#26c9ac"/>
      <path id="Path_28" data-name="Path 28" d="M374.777,617.45H356.188a2.421,2.421,0,0,1,0-4.841h18.588a2.42,2.42,0,1,1,0,4.841Z" transform="translate(-338.251 -445.122)" fill="#26c9ac"/>
      <path id="Path_29" data-name="Path 29" d="M505.327,334.2a3.028,3.028,0,0,1-1.148-.225L439.5,307.143v-84a2.805,2.805,0,0,1,2.8-2.8h124.08a2.805,2.805,0,0,1,2.8,2.8V307.2l-.122.052L506.51,333.967A3.048,3.048,0,0,1,505.327,334.2Z" transform="translate(-389.668 -209.861)" fill="#fff"/>
      <path id="Path_30" data-name="Path 30" d="M505.027,334.1a3.23,3.23,0,0,1-1.225-.24L439,306.977V222.839a3.005,3.005,0,0,1,3-3h124.08a3.005,3.005,0,0,1,3,3v84.195l-62.8,26.817A3.245,3.245,0,0,1,505.027,334.1ZM439.8,306.442l64.307,26.683a2.449,2.449,0,0,0,1.868-.011l62.308-26.609V222.839a2.2,2.2,0,0,0-2.2-2.2H442a2.2,2.2,0,0,0-2.2,2.2Z" transform="translate(-389.368 -209.561)" fill="#3f3d56"/>
      <path id="Path_31" data-name="Path 31" d="M540.346,387.837h-.08l-45.95,19.621L431.447,434.3a2.028,2.028,0,0,1-1.553.008L365.032,407.4l-47.078-19.533-.072-.032h-.08a2.8,2.8,0,0,0-2.8,2.8V512.318a2.8,2.8,0,0,0,2.8,2.8H540.346a2.805,2.805,0,0,0,2.8-2.8V390.639A2.8,2.8,0,0,0,540.346,387.837Zm2,124.481a2,2,0,0,1-2,2H317.8a2,2,0,0,1-2-2V390.639a2.006,2.006,0,0,1,1.925-2l47.307,19.629,64.554,26.785a2.85,2.85,0,0,0,2.177-.012l62.552-26.713,46.11-19.689a2.008,2.008,0,0,1,1.921,2Z" transform="translate(-315 -310.317)" fill="#3f3d56"/>
      <path id="Path_32" data-name="Path 32" d="M548.368,324.37a11.007,11.007,0,0,1-6.623-2.2l-.118-.089-24.941-19.1a11.081,11.081,0,1,1,13.478-17.591l16.155,12.387L584.5,247.995a11.08,11.08,0,0,1,15.535-2.051l-.237.322.244-.318a11.093,11.093,0,0,1,2.051,15.535l-44.9,58.561A11.085,11.085,0,0,1,548.368,324.37Z" transform="translate(-433.356 -223.846)" fill="#26c9ac"/>
    </g>
  </g>
</svg>
