<svg xmlns="http://www.w3.org/2000/svg" width="48.456" height="48.456" viewBox="0 0 48.456 48.456">
  <g id="Group_475" data-name="Group 475" transform="translate(-38.037 -244.537)">
    <g id="_1_purple" data-name="1)purple" transform="translate(38.037 244.537)">
      <rect id="Rectangle" width="48.456" height="48.456" rx="4" transform="translate(48.456) rotate(90)" fill="#fff" opacity="0.08"/>
    </g>
    <g id="specialities" transform="translate(47.178 253.678)">
      <path id="Combined_Shape" data-name="Combined Shape" d="M0,29.572V.6A.6.6,0,0,1,1.2.6v7.34H3.407V4.764a2.2,2.2,0,0,1,2.2-2.183H26.46a2.2,2.2,0,0,1,2.2,2.183V23.027a2.2,2.2,0,0,1-2.2,2.183H5.612a2.2,2.2,0,0,1-2.2-2.183V19.454H1.2V29.572a.6.6,0,1,1-1.2,0ZM4.611,4.764V23.027a1,1,0,0,0,1,.993H26.46a1,1,0,0,0,1-.993V4.764a1,1,0,0,0-1-.993H5.612A1,1,0,0,0,4.611,4.764ZM1.2,18.263H3.407V9.131H1.2Zm8.176-3.805a4.812,4.812,0,0,1-.515-.628H8.82v-.065a4.85,4.85,0,0,1,.558-6.018,4.544,4.544,0,0,1,6.554,0l.233.239.233-.239a4.543,4.543,0,0,1,6.278-.262l.151.138.125.124a4.843,4.843,0,0,1,.129,6.574l-.129.137-6.788,6.984Zm6.788,5.265,5.728-5.893H18.036l-1.109,2.562-2.551-4.209L13.13,13.829H10.436Zm.582-5.941.5-1.144h5.531a3.654,3.654,0,0,0,.339-1.538,3.566,3.566,0,0,0-1-2.5L22,8.49a3.352,3.352,0,0,0-4.754.1L16.164,9.7,15.081,8.589a3.36,3.36,0,0,0-4.853,0A3.579,3.579,0,0,0,9.217,11.1a3.641,3.641,0,0,0,.337,1.536h2.974l1.96-2.587Z" transform="translate(0.754)" fill="#fff"/>
    </g>
  </g>
</svg>
