<svg xmlns="http://www.w3.org/2000/svg" width="151.999" height="46.45" viewBox="0 0 151.999 46.45">
  <g id="Group_726" data-name="Group 726" transform="translate(-2146.354 -185.944)">
    <g id="Group_724" data-name="Group 724" transform="translate(2146.354 185.944)">
      <path id="Path_406" data-name="Path 406" d="M2181.359,214.922a3.406,3.406,0,1,1-6.812,0,3.422,3.422,0,0,1,4.735-3.144,3.383,3.383,0,0,1,2.077,3.144Zm-6.063,21.933a85.883,85.883,0,0,1,.674-10.742,1.584,1.584,0,0,1,.468-.916,1.391,1.391,0,0,1,1.029-.393,1.19,1.19,0,0,1,.936.43,1.473,1.473,0,0,1,.375.992q0,.224-.094,1.348t-.225,2.677q-.131,1.553-.224,3.293t-.094,3.2a10.672,10.672,0,0,0,.393,3.2,5.079,5.079,0,0,0,1.01,1.89,3.111,3.111,0,0,0,1.31.9,4.3,4.3,0,0,0,1.328.224,3.925,3.925,0,0,0,2.172-.749,11.984,11.984,0,0,0,2.3-2.1,26.389,26.389,0,0,0,2.377-3.238,48,48,0,0,0,2.358-4.21,1.4,1.4,0,0,1,.524-.581,1.41,1.41,0,0,1,.748-.205,1.262,1.262,0,0,1,.992.449,1.45,1.45,0,0,1,.393.973,1.267,1.267,0,0,1-.15.636q-.45.862-1.123,2.1t-1.535,2.545q-.861,1.31-1.89,2.6a18.525,18.525,0,0,1-2.189,2.321,11.241,11.241,0,0,1-2.433,1.666,5.724,5.724,0,0,1-2.583.637,5.959,5.959,0,0,1-2.957-.711,6.7,6.7,0,0,1-2.152-1.909,8.306,8.306,0,0,1-1.31-2.826A13.646,13.646,0,0,1,2175.3,236.855Zm3.968-21.933a1.343,1.343,0,0,0-1.31-1.31,1.2,1.2,0,0,0-.9.393,1.288,1.288,0,0,0-.375.917,1.278,1.278,0,0,0,1.273,1.272,1.287,1.287,0,0,0,.917-.374A1.2,1.2,0,0,0,2179.263,214.922Z" transform="translate(-2174.547 -199.351)" fill="#fff"/>
      <path id="Path_407" data-name="Path 407" d="M2214.867,253.2q.6-1.235,1.385-2.714t1.684-2.994q.9-1.517,1.89-3.013t2.078-2.844a7.437,7.437,0,0,1,2.19-1.89,4.493,4.493,0,0,1,2.077-.58,3.211,3.211,0,0,1,2.882,1.422,6.276,6.276,0,0,1,.936,3.519q0,.486-.056,1.178t-.113,1.479q-.055.786-.112,1.591t-.056,1.516a15.291,15.291,0,0,0,.094,1.722,5.185,5.185,0,0,0,.355,1.441,2.271,2.271,0,0,0,.748.973,2.1,2.1,0,0,0,1.273.355,4.335,4.335,0,0,0,2.77-1.1,15.149,15.149,0,0,0,2.489-2.62,23.92,23.92,0,0,0,1.984-3.088q.841-1.571,1.254-2.545a1.429,1.429,0,0,1,.543-.636,1.4,1.4,0,0,1,.767-.225,1.281,1.281,0,0,1,1.029.467,1.521,1.521,0,0,1,.393.992,1.323,1.323,0,0,1-.112.524q-.149.3-.6,1.235t-1.179,2.152q-.73,1.217-1.7,2.583a17.236,17.236,0,0,1-2.152,2.488,12.154,12.154,0,0,1-2.545,1.872,5.883,5.883,0,0,1-2.863.748,5.093,5.093,0,0,1-2.732-.655,4.727,4.727,0,0,1-1.647-1.721,7.038,7.038,0,0,1-.8-2.358,16.56,16.56,0,0,1-.206-2.6q0-.561.056-1.272t.149-1.5q.093-.786.149-1.572t.057-1.5a2.571,2.571,0,0,0-.374-1.628,1,1,0,0,0-.673-.43,2.183,2.183,0,0,0-1.366.692,12.732,12.732,0,0,0-1.609,1.815q-.843,1.123-1.722,2.527t-1.647,2.788q-.767,1.386-1.422,2.639t-1.029,2.077a5.573,5.573,0,0,1-1.5,2.115,2.594,2.594,0,0,1-1.534.543,2.351,2.351,0,0,1-1.74-.655,2.505,2.505,0,0,1-.655-1.853q0-.262.075-1.029t.188-1.834q.111-1.066.224-2.3t.224-2.451q.113-1.216.188-2.265t.075-1.76q0-.935-.075-1.8a1.713,1.713,0,0,0-.3-1.048q-.337.113-1.2,1.4a29.2,29.2,0,0,0-2.208,4.548,1.4,1.4,0,0,1-.562.636,1.51,1.51,0,0,1-.786.224,1.27,1.27,0,0,1-1.01-.43,1.465,1.465,0,0,1-.374-.992,1.614,1.614,0,0,1,.112-.562,26.869,26.869,0,0,1,3.163-5.895q1.478-1.89,2.938-1.89a2.433,2.433,0,0,1,1.459.431,3.065,3.065,0,0,1,.955,1.142,6.15,6.15,0,0,1,.524,1.571,9.147,9.147,0,0,1,.168,1.76q0,.674-.093,2.1t-.244,3.05q-.149,1.629-.28,3.238T2214.867,253.2Z" transform="translate(-2189.752 -211.618)" fill="#fff"/>
      <path id="Path_408" data-name="Path 408" d="M2288.536,195.731a1.2,1.2,0,0,1-.412.955,1.493,1.493,0,0,1-1.011.355h-18.976v.412a37.669,37.669,0,0,1-.337,4.866q-.337,2.583-.917,5.147t-1.311,5q-.729,2.434-1.5,4.492a38.566,38.566,0,0,1-1.516,3.574,12.932,12.932,0,0,1-1.348,2.265,22.469,22.469,0,0,0,1.161,3.2,13.4,13.4,0,0,0,1.516,2.582,7.408,7.408,0,0,0,1.815,1.741,3.758,3.758,0,0,0,2.1.636,4.01,4.01,0,0,0,2.6-1.1,15.2,15.2,0,0,0,2.4-2.62,27.409,27.409,0,0,0,1.946-3.069,25.142,25.142,0,0,0,1.216-2.488,1.324,1.324,0,0,1,1.31-.9,1.3,1.3,0,0,1,1.029.449,1.451,1.451,0,0,1,.393.973,1.309,1.309,0,0,1-.113.524q-.112.262-.542,1.2t-1.123,2.171q-.694,1.235-1.61,2.6a15.892,15.892,0,0,1-2.059,2.489,11.964,11.964,0,0,1-2.451,1.871,5.5,5.5,0,0,1-2.77.749,7.138,7.138,0,0,1-4.642-1.684,13.384,13.384,0,0,1-3.5-4.716,28.558,28.558,0,0,1-2.189-7.186,51.355,51.355,0,0,1-.749-9.1q0-1.235.038-2.9t.15-3.518q.111-1.853.336-3.818t.6-3.837h-13.437a1.493,1.493,0,0,1-1.011-.355,1.313,1.313,0,0,1,0-1.909,1.5,1.5,0,0,1,1.011-.355H2258.7a17.3,17.3,0,0,1,.879-2.471,9.147,9.147,0,0,1,1.161-1.946,5.233,5.233,0,0,1,1.459-1.291,3.475,3.475,0,0,1,1.778-.468,2.843,2.843,0,0,1,1.629.468,3.955,3.955,0,0,1,1.178,1.291,7.258,7.258,0,0,1,.767,1.946,18.6,18.6,0,0,1,.43,2.471h19.127a1.5,1.5,0,0,1,1.011.355A1.2,1.2,0,0,1,2288.536,195.731Zm-28.184,23.318a49.231,49.231,0,0,0,2.04-5.333q.917-2.864,1.572-5.783t1.01-5.726a41.38,41.38,0,0,0,.356-5.165h-4.416a45.8,45.8,0,0,0-.842,5.746q-.319,3.425-.318,8.328,0,2.734.15,4.586A28.959,28.959,0,0,0,2260.352,219.05Zm3.48-28q-.337,0-.973.73a8.149,8.149,0,0,0-1.273,2.639h3.593a10.3,10.3,0,0,0-.542-2.471C2264.4,191.352,2264.132,191.053,2263.832,191.053Z" transform="translate(-2207.315 -188.246)" fill="#fff"/>
      <path id="Path_409" data-name="Path 409" d="M2318.3,253.437a11.3,11.3,0,0,1-3.05,3.368,5.9,5.9,0,0,1-6.045.711,5.769,5.769,0,0,1-1.946-1.479,6.469,6.469,0,0,1-1.254-2.3,9.927,9.927,0,0,1-.431-3.032,19.236,19.236,0,0,1,.506-4.641,21.636,21.636,0,0,1,1.1-3.387,14.659,14.659,0,0,1,1.647-2.788,1.161,1.161,0,0,1,.468-.337,1.56,1.56,0,0,1,.58-.112,1.288,1.288,0,0,1,.992.431,1.428,1.428,0,0,1,.393.992,1.164,1.164,0,0,1-.094.45c-.063.15-.131.3-.206.449q-.187.337-.6,1.029a13.273,13.273,0,0,0-.861,1.815,17.2,17.2,0,0,0-.786,2.639,16.028,16.028,0,0,0-.337,3.462,5.412,5.412,0,0,0,.88,3.35,2.956,2.956,0,0,0,2.489,1.142,3.615,3.615,0,0,0,1.553-.43,6.04,6.04,0,0,0,1.721-1.328,8.491,8.491,0,0,0,1.479-2.283,10.226,10.226,0,0,0,.823-3.256l.562-6.438a1.488,1.488,0,0,1,.487-.936,1.4,1.4,0,0,1,.973-.374,1.229,1.229,0,0,1,1.011.468,1.666,1.666,0,0,1,.374,1.066l-.486,6.214a10.783,10.783,0,0,0,.056,2.059,11.623,11.623,0,0,0,.542,2.507,5.668,5.668,0,0,0,1.235,2.115,2.833,2.833,0,0,0,2.171.88,3.972,3.972,0,0,0,1.909-.506,8.34,8.34,0,0,0,1.8-1.329,12.769,12.769,0,0,0,1.591-1.853q.729-1.029,1.347-2.077t1.067-2q.449-.954.748-1.628a1.481,1.481,0,0,1,.524-.636,1.315,1.315,0,0,1,.749-.225,1.289,1.289,0,0,1,1.048.449,1.492,1.492,0,0,1,.374.973,1.412,1.412,0,0,1-.112.561c-.1.2-.294.617-.58,1.254s-.662,1.36-1.124,2.171a28.586,28.586,0,0,1-1.666,2.564,17.957,17.957,0,0,1-2.171,2.489,11.358,11.358,0,0,1-2.6,1.871,6.441,6.441,0,0,1-3.013.729,5.433,5.433,0,0,1-3.668-1.254A7.44,7.44,0,0,1,2318.3,253.437Z" transform="translate(-2237.076 -212.677)" fill="#fff"/>
      <path id="Path_410" data-name="Path 410" d="M2365.653,253.2q.6-1.235,1.384-2.714t1.684-2.994q.9-1.517,1.89-3.013t2.077-2.844a7.442,7.442,0,0,1,2.189-1.89,4.494,4.494,0,0,1,2.078-.58,3.21,3.21,0,0,1,2.882,1.422,6.27,6.27,0,0,1,.936,3.519c0,.324-.018.717-.056,1.178s-.074.955-.112,1.479-.075,1.054-.113,1.591-.056,1.042-.056,1.516a15.173,15.173,0,0,0,.094,1.722,5.16,5.16,0,0,0,.355,1.441,2.27,2.27,0,0,0,.749.973,2.1,2.1,0,0,0,1.272.355,4.336,4.336,0,0,0,2.77-1.1,15.147,15.147,0,0,0,2.488-2.62,23.871,23.871,0,0,0,1.984-3.088q.843-1.571,1.254-2.545a1.429,1.429,0,0,1,.543-.636,1.407,1.407,0,0,1,.767-.225,1.281,1.281,0,0,1,1.029.467,1.52,1.52,0,0,1,.393.992,1.323,1.323,0,0,1-.112.524q-.151.3-.6,1.235t-1.178,2.152q-.731,1.217-1.7,2.583a17.223,17.223,0,0,1-2.152,2.488,12.152,12.152,0,0,1-2.545,1.872,5.883,5.883,0,0,1-2.864.748,5.092,5.092,0,0,1-2.732-.655,4.719,4.719,0,0,1-1.647-1.721,7.038,7.038,0,0,1-.8-2.358,16.473,16.473,0,0,1-.206-2.6q0-.561.056-1.272c.038-.474.087-.973.15-1.5s.113-1.048.15-1.572.056-1.023.056-1.5a2.571,2.571,0,0,0-.374-1.628,1,1,0,0,0-.674-.43,2.184,2.184,0,0,0-1.366.692,12.777,12.777,0,0,0-1.61,1.815q-.842,1.123-1.722,2.527t-1.647,2.788q-.767,1.386-1.422,2.639t-1.03,2.077a5.589,5.589,0,0,1-1.5,2.115,2.592,2.592,0,0,1-1.535.543,2.35,2.35,0,0,1-1.74-.655,2.5,2.5,0,0,1-.655-1.853q0-.262.075-1.029t.187-1.834q.113-1.066.225-2.3t.224-2.451q.112-1.216.188-2.265t.074-1.76q0-.935-.074-1.8a1.719,1.719,0,0,0-.3-1.048q-.337.113-1.2,1.4a29.194,29.194,0,0,0-2.209,4.548,1.4,1.4,0,0,1-.561.636,1.509,1.509,0,0,1-.786.224,1.27,1.27,0,0,1-1.011-.43,1.467,1.467,0,0,1-.374-.992,1.615,1.615,0,0,1,.112-.562,26.87,26.87,0,0,1,3.163-5.895q1.478-1.89,2.938-1.89a2.436,2.436,0,0,1,1.459.431,3.068,3.068,0,0,1,.954,1.142,6.151,6.151,0,0,1,.524,1.571,9.147,9.147,0,0,1,.168,1.76q0,.674-.094,2.1t-.243,3.05q-.149,1.629-.281,3.238T2365.653,253.2Z" transform="translate(-2261.712 -211.618)" fill="#fff"/>
      <path id="Path_411" data-name="Path 411" d="M2427.266,253.307a5.809,5.809,0,0,0,2.021,1.74,7.02,7.02,0,0,0,6.363-.224,11,11,0,0,0,2.732-2.3,18.458,18.458,0,0,0,2.208-3.181q.972-1.76,1.759-3.519a1.364,1.364,0,0,1,.524-.618,1.416,1.416,0,0,1,.749-.205,1.3,1.3,0,0,1,1.029.449,1.45,1.45,0,0,1,.393.973,1.168,1.168,0,0,1-.038.318,1.591,1.591,0,0,1-.112.281,27.167,27.167,0,0,1-5.634,8.571,10.1,10.1,0,0,1-6.906,2.957,8.722,8.722,0,0,1-7.223-3.425,10.409,10.409,0,0,1-1.721-3.425,13.447,13.447,0,0,1-.562-3.818,12.564,12.564,0,0,1,.467-3.518,8.893,8.893,0,0,1,1.348-2.807,6.492,6.492,0,0,1,2.1-1.872,5.428,5.428,0,0,1,2.677-.674,4.346,4.346,0,0,1,1.7.355,4.914,4.914,0,0,1,1.516,1.01,5,5,0,0,1,1.086,1.591,5.266,5.266,0,0,1,.411,2.133,7.882,7.882,0,0,1-.524,2.883,9.713,9.713,0,0,1-1.441,2.508,12.281,12.281,0,0,1-2.19,2.133A16.036,16.036,0,0,1,2427.266,253.307Zm-1.123-2.432a9.081,9.081,0,0,0,2.115-1.235,8.807,8.807,0,0,0,1.629-1.647,7.64,7.64,0,0,0,1.047-1.89,5.633,5.633,0,0,0,.375-2,2.356,2.356,0,0,0-.561-1.7,1.77,1.77,0,0,0-1.31-.58,2.694,2.694,0,0,0-1.722.561,4.243,4.243,0,0,0-1.16,1.46,7.513,7.513,0,0,0-.655,2,11.911,11.911,0,0,0-.206,2.19,8.211,8.211,0,0,0,.131,1.422Q2425.955,250.2,2426.143,250.874Z" transform="translate(-2293.045 -212.472)" fill="#fff"/>
    </g>
  </g>
</svg>
