<svg xmlns="http://www.w3.org/2000/svg" width="24.456" height="24.456" viewBox="0 0 24.456 24.456">
  <path id="Icon_metro-qrcode" data-name="Icon metro-qrcode" d="M10.213,3.457H4.1V9.571h6.114Zm1.529-1.529V11.1H2.571V1.928ZM5.628,4.985H8.685V8.042H5.628ZM25.5,3.457H19.384V9.571H25.5V3.457Zm1.529-1.529V11.1H17.856V1.928h9.171ZM20.913,4.985H23.97V8.042H20.913Zm-10.7,13.757H4.1v6.114h6.114Zm1.529-1.529v9.171H2.571V17.213ZM5.628,20.27H8.685v3.057H5.628ZM13.27,1.928H14.8V3.457H13.27ZM14.8,3.457h1.529V4.985H14.8ZM13.27,4.985H14.8V6.514H13.27ZM14.8,6.514h1.529V8.042H14.8ZM13.27,8.042H14.8V9.571H13.27ZM14.8,9.571h1.529V11.1H14.8ZM13.27,11.1H14.8v1.529H13.27Zm0,3.057H14.8v1.529H13.27ZM14.8,15.685h1.529v1.529H14.8ZM13.27,17.213H14.8v1.529H13.27ZM14.8,18.742h1.529V20.27H14.8ZM13.27,20.27H14.8V21.8H13.27ZM14.8,21.8h1.529v1.529H14.8ZM13.27,23.327H14.8v1.529H13.27ZM14.8,24.856h1.529v1.529H14.8Zm10.7-10.7h1.529v1.529H25.5Zm-21.4,0H5.628v1.529H4.1Zm1.529-1.529H7.156v1.529H5.628Zm-3.057,0H4.1v1.529H2.571Zm6.114,0h1.529v1.529H8.685Zm1.529,1.529h1.529v1.529H10.213Zm1.529-1.529H13.27v1.529H11.742Zm4.586,1.529h1.529v1.529H16.327Zm1.529-1.529h1.529v1.529H17.856Zm1.529,1.529h1.529v1.529H19.384Zm1.529-1.529h1.529v1.529H20.913Zm1.529,1.529H23.97v1.529H22.441Zm1.529-1.529H25.5v1.529H23.97ZM25.5,17.213h1.529v1.529H25.5Zm-9.171,0h1.529v1.529H16.327Zm1.529-1.529h1.529v1.529H17.856Zm1.529,1.529h1.529v1.529H19.384Zm3.057,0H23.97v1.529H22.441Zm1.529-1.529H25.5v1.529H23.97ZM25.5,20.27h1.529V21.8H25.5Zm-9.171,0h1.529V21.8H16.327Zm1.529-1.529h1.529V20.27H17.856Zm3.057,0h1.529V20.27H20.913Zm1.529,1.529H23.97V21.8H22.441Zm1.529-1.529H25.5V20.27H23.97ZM25.5,23.327h1.529v1.529H25.5ZM17.856,21.8h1.529v1.529H17.856Zm1.529,1.529h1.529v1.529H19.384ZM20.913,21.8h1.529v1.529H20.913Zm1.529,1.529H23.97v1.529H22.441Zm-4.586,1.529h1.529v1.529H17.856Zm3.057,0h1.529v1.529H20.913Zm3.057,0H25.5v1.529H23.97Z" transform="translate(-2.571 -1.928)"/>
</svg>
