<svg xmlns="http://www.w3.org/2000/svg" width="10.793" height="16.189" viewBox="0 0 10.793 16.189">
  <path id="Icon_ionic-ios-help" data-name="Icon ionic-ios-help" d="M18.956,11.25c3.162,0,5.337,1.754,5.337,4.275a4.124,4.124,0,0,1-2.369,3.744c-1.467.852-1.965,1.476-1.965,2.555v.666H17.033l-.025-.725A3.51,3.51,0,0,1,19,18.055c1.425-.852,2.024-1.391,2.024-2.437A2.047,2.047,0,0,0,18.753,13.8a2.133,2.133,0,0,0-2.26,2.074H13.5C13.559,13.164,15.566,11.25,18.956,11.25ZM16.738,25.7a1.81,1.81,0,1,1,1.8,1.737A1.766,1.766,0,0,1,16.738,25.7Z" transform="translate(-13.5 -11.25)"/>
</svg>
