<svg xmlns="http://www.w3.org/2000/svg" xmlns:xlink="http://www.w3.org/1999/xlink" width="7.158" height="7.157" viewBox="0 0 7.158 7.157">
  <defs>
    <clipPath id="clip-path">
      <path id="_Icon_小olor" data-name=" Icon 小olor" d="M.358,7.157a.358.358,0,0,1-.351-.428L.314,5.195a.394.394,0,0,0-.032-.229A3.575,3.575,0,0,1,3.006.044,3.774,3.774,0,0,1,3.58,0,3.581,3.581,0,0,1,7.113,4.152,3.606,3.606,0,0,1,4.254,7.094a3.66,3.66,0,0,1-.672.063,3.555,3.555,0,0,1-1.391-.281.443.443,0,0,0-.17-.037.323.323,0,0,0-.06.006L.428,7.15A.35.35,0,0,1,.358,7.157ZM2.022,6.122a1.149,1.149,0,0,1,.449.094,2.835,2.835,0,0,0,1.111.225,2.926,2.926,0,0,0,.541-.051A2.862,2.862,0,0,0,5.6,1.554,2.844,2.844,0,0,0,3.579.716a3.024,3.024,0,0,0-.464.036A2.859,2.859,0,0,0,.942,4.687a1.1,1.1,0,0,1,.074.648l-.2,1.008,1.007-.2A1.029,1.029,0,0,1,2.022,6.122ZM5.011,3.936a.358.358,0,1,1,.358-.358A.358.358,0,0,1,5.011,3.936Zm-1.432,0a.358.358,0,1,1,.358-.358A.358.358,0,0,1,3.579,3.936Zm-1.431,0a.358.358,0,1,1,.358-.358A.358.358,0,0,1,2.147,3.936Z" transform="translate(0)" fill="#fff"/>
    </clipPath>
  </defs>
  <g id="message-circle" transform="translate(0)">
    <path id="_Icon_小olor-2" data-name=" Icon 小olor" d="M.358,7.157a.358.358,0,0,1-.351-.428L.314,5.195a.394.394,0,0,0-.032-.229A3.575,3.575,0,0,1,3.006.044,3.774,3.774,0,0,1,3.58,0,3.581,3.581,0,0,1,7.113,4.152,3.606,3.606,0,0,1,4.254,7.094a3.66,3.66,0,0,1-.672.063,3.555,3.555,0,0,1-1.391-.281.443.443,0,0,0-.17-.037.323.323,0,0,0-.06.006L.428,7.15A.35.35,0,0,1,.358,7.157ZM2.022,6.122a1.149,1.149,0,0,1,.449.094,2.835,2.835,0,0,0,1.111.225,2.926,2.926,0,0,0,.541-.051A2.862,2.862,0,0,0,5.6,1.554,2.844,2.844,0,0,0,3.579.716a3.024,3.024,0,0,0-.464.036A2.859,2.859,0,0,0,.942,4.687a1.1,1.1,0,0,1,.074.648l-.2,1.008,1.007-.2A1.029,1.029,0,0,1,2.022,6.122ZM5.011,3.936a.358.358,0,1,1,.358-.358A.358.358,0,0,1,5.011,3.936Zm-1.432,0a.358.358,0,1,1,.358-.358A.358.358,0,0,1,3.579,3.936Zm-1.431,0a.358.358,0,1,1,.358-.358A.358.358,0,0,1,2.147,3.936Z" transform="translate(0 0)" fill="#fff"/>
  </g>
</svg>
