<svg xmlns="http://www.w3.org/2000/svg" width="32.151" height="17.395" viewBox="0 0 32.151 17.395">
  <path id="Path_35" data-name="Path 35" d="M260.409,520.436q.521-1.075,1.205-2.362t1.466-2.606q.782-1.32,1.645-2.622t1.808-2.476a6.47,6.47,0,0,1,1.906-1.645,3.91,3.91,0,0,1,1.808-.5,2.793,2.793,0,0,1,2.508,1.238,5.457,5.457,0,0,1,.814,3.062q0,.423-.049,1.026t-.1,1.287q-.049.684-.1,1.384t-.049,1.319a13.216,13.216,0,0,0,.082,1.5,4.494,4.494,0,0,0,.309,1.254,1.972,1.972,0,0,0,.652.847,1.828,1.828,0,0,0,1.107.309,3.773,3.773,0,0,0,2.411-.961A13.154,13.154,0,0,0,280,518.2a20.768,20.768,0,0,0,1.726-2.687q.733-1.368,1.091-2.215a1.244,1.244,0,0,1,.472-.554,1.226,1.226,0,0,1,.667-.2,1.115,1.115,0,0,1,.9.407,1.323,1.323,0,0,1,.342.863,1.149,1.149,0,0,1-.1.456q-.13.261-.521,1.075t-1.026,1.873q-.635,1.059-1.482,2.248a15.03,15.03,0,0,1-1.873,2.166,10.562,10.562,0,0,1-2.215,1.628,5.119,5.119,0,0,1-2.492.652,4.432,4.432,0,0,1-2.378-.57,4.111,4.111,0,0,1-1.434-1.5,6.115,6.115,0,0,1-.7-2.052,14.321,14.321,0,0,1-.179-2.264q0-.489.049-1.108t.13-1.3q.081-.684.13-1.368t.049-1.3a2.239,2.239,0,0,0-.326-1.417.871.871,0,0,0-.586-.374,1.9,1.9,0,0,0-1.189.6,11.1,11.1,0,0,0-1.4,1.58q-.733.977-1.5,2.2t-1.433,2.427q-.668,1.206-1.238,2.3t-.9,1.808a4.852,4.852,0,0,1-1.3,1.84,2.256,2.256,0,0,1-1.335.472,2.047,2.047,0,0,1-1.515-.57,2.179,2.179,0,0,1-.57-1.612q0-.228.065-.9t.163-1.6q.1-.928.2-2t.2-2.133q.1-1.058.163-1.971t.065-1.531q0-.814-.065-1.563a1.5,1.5,0,0,0-.26-.912q-.293.1-1.042,1.222a25.436,25.436,0,0,0-1.922,3.958,1.219,1.219,0,0,1-.489.554,1.312,1.312,0,0,1-.684.2,1.1,1.1,0,0,1-.88-.375,1.276,1.276,0,0,1-.326-.863,1.4,1.4,0,0,1,.1-.489,23.382,23.382,0,0,1,2.753-5.13,3.468,3.468,0,0,1,2.557-1.645,2.122,2.122,0,0,1,1.271.375,2.676,2.676,0,0,1,.83.993,5.347,5.347,0,0,1,.456,1.368,7.978,7.978,0,0,1,.146,1.531q0,.587-.082,1.824t-.212,2.655q-.13,1.417-.244,2.818T260.409,520.436Z" transform="translate(-253.047 -506.526)" fill="#fff"/>
</svg>
