<svg xmlns="http://www.w3.org/2000/svg" width="16" height="20" viewBox="0 0 16 20">
  <path id="_Icon_Сolor" data-name="🎨 Icon Сolor" d="M14.857,20a1.128,1.128,0,0,1-1.143-1.111A5.643,5.643,0,0,0,8,13.333a5.643,5.643,0,0,0-5.715,5.556A1.128,1.128,0,0,1,1.143,20,1.128,1.128,0,0,1,0,18.889a7.9,7.9,0,0,1,8-7.778,7.9,7.9,0,0,1,8,7.778A1.129,1.129,0,0,1,14.857,20ZM8,8.889A4.515,4.515,0,0,1,3.428,4.444,4.514,4.514,0,0,1,8,0a4.514,4.514,0,0,1,4.571,4.444A4.514,4.514,0,0,1,8,8.889ZM8,2.222A2.257,2.257,0,0,0,5.715,4.444a2.286,2.286,0,0,0,4.571,0A2.257,2.257,0,0,0,8,2.222Z" fill="#3c3c3b"/>
</svg>
